<?xml version="1.0" encoding="iso-8859-1"?>
<!-- Uploaded to: SVG Repo, www.svgrepo.com, Generator: SVG Repo Mixer Tools -->
<!DOCTYPE svg PUBLIC "-//W3C//DTD SVG 1.1//EN" "http://www.w3.org/Graphics/SVG/1.1/DTD/svg11.dtd">
<svg fill="#000000" version="1.1" id="Capa_1" xmlns="http://www.w3.org/2000/svg" xmlns:xlink="http://www.w3.org/1999/xlink" 
	 width="800px" height="800px" viewBox="0 0 994.2 994.201"
	 xml:space="preserve">
<g>
	<path d="M25,623.951h25.5c10.9,0,20.5-7,23.8-17.5c8.6-26.701,20.8-47.201,36.3-60.9c15.5-13.701,34.5-21.1,57.7-22.4l-0.1,294.9
		c0,8.5-3.9,10.6-23.4,12.6h-0.2c-8.9,0.9-18.3,1.801-28.6,2.6c-12.9,1-23,12-23,24.9v25.9c0,13.799,11.2,25,25,25h111.6h0.1h111.6
		c13.801,0,25-11.201,25-25v-25.9c0-12.9-10.1-23.9-23-24.9c-10.3-0.799-19.699-1.699-28.6-2.6h-0.2c-19.5-2-23.4-4.199-23.4-12.6
		l-0.1-294.9c23.2,1.301,42.2,8.699,57.7,22.4c15.5,13.699,27.7,34.1,36.3,60.9c3.3,10.398,12.9,17.5,23.8,17.5h25.5
		c13.801,0,25-11.201,25-25V469.75c0-13.8-11.199-25-25-25H229.7h-0.1H25c-13.8,0-25,11.2-25,25v129.099
		C0,612.65,11.2,623.951,25,623.951z"/>
	<path d="M964.2,85.15h-329.1h-0.2h-329c-16.6,0-30,13.4-30,30v200.2c0,16.6,13.4,30,30,30h32.3c13,0,24.4-8.3,28.5-20.6
		c28.7-86.9,83.6-145.8,184.4-144.3L551,776.349c0,31.5-27.899,34.301-53.2,36.9c-14.1,1.5-28.1,2.701-42.199,3.9
		C440,818.451,428,831.451,428,847.05v31.799c0,16.602,13.4,30,30,30h177h0.2h177c16.6,0,30-13.398,30-30V847.05
		c0-15.6-12-28.6-27.6-29.9c-14.101-1.1-28.101-2.4-42.2-3.9c-25.3-2.6-53.2-5.4-53.2-36.9l-0.1-595.899
		c100.8-1.5,155.699,57.4,184.399,144.3c4.101,12.3,15.5,20.6,28.5,20.6h32.2c16.6,0,30-13.4,30-30v-200.2
		C994.2,98.55,980.8,85.15,964.2,85.15z"/>
</g>
</svg>